<?xml version="1.0" standalone="no"?>
<!DOCTYPE svg PUBLIC "-//W3C//DTD SVG 20010904//EN"
 "http://www.w3.org/TR/2001/REC-SVG-20010904/DTD/svg10.dtd">
<svg version="1.0" xmlns="http://www.w3.org/2000/svg"
 width="335.000000pt" height="335.000000pt" viewBox="0 0 335.000000 335.000000"
 preserveAspectRatio="xMidYMid meet">
<metadata>
Created by potrace 1.14, written by Peter Selinger 2001-2017
</metadata>
<g transform="translate(0.000000,335.000000) scale(0.100000,-0.100000)"
fill="#000000" stroke="none">
<path d="M1657 3343 c-2 -5 -3 -161 -2 -348 l1 -340 305 -3 304 -2 0 350 0
350 -302 0 c-166 0 -304 -3 -306 -7z"/>
<path d="M742 2220 l3 -305 290 -1 c160 0 295 1 301 3 7 3 10 99 10 306 l-1
302 -303 0 -302 0 2 -305z"/>
<path d="M1662 2075 c-4 -5 -5 -240 -4 -521 3 -574 1 -603 -64 -732 -45 -88
-112 -153 -187 -179 -73 -25 -287 -25 -372 0 -90 27 -191 80 -273 142 -70 53
-92 64 -92 48 0 -5 -15 -26 -34 -48 -19 -22 -102 -123 -185 -225 l-151 -185
37 -33 c106 -92 285 -197 422 -249 60 -22 190 -57 264 -70 72 -12 344 -11 418
2 446 79 749 424 815 930 11 84 10 1116 -1 1123 -17 11 -586 8 -593 -3z"/>
<path d="M2374 475 c-82 -34 -123 -150 -93 -260 15 -52 77 -115 115 -116 75
-3 104 8 142 50 30 35 37 62 37 151 0 61 -4 82 -23 113 -39 61 -116 88 -178
62z m88 -56 c65 -35 61 -233 -5 -256 -39 -12 -46 -12 -72 8 -56 45 -58 192 -2
242 23 20 49 22 79 6z"/>
<path d="M2634 290 l0 -190 33 0 33 0 0 190 0 190 -33 0 -33 0 0 -190z"/>
<path d="M2774 290 l0 -191 31 3 30 3 -1 133 c-1 73 0 131 2 129 2 -1 33 -62
68 -135 l65 -132 36 0 35 0 0 190 0 190 -30 0 -30 0 -1 -62 c0 -35 0 -94 0
-133 l0 -70 -16 39 c-9 21 -38 80 -64 130 -46 90 -48 91 -86 94 l-40 3 1 -191z"/>
</g>
</svg>
